<?xml version='1.0' encoding='utf-8'?>
<svg xmlns="http://www.w3.org/2000/svg" version="1.1" viewBox="0 0 38 31">
<path d="m34.098 24.095l-0.016 6.905-5.635-6.376h-11.928c-3.548 0-6.425-2.877-6.425-6.426v-7.476c0-3.548 2.876-6.425 6.425-6.425h15.035c3.548 0 6.425 2.877 6.425 6.425v7.476c0 2.645-1.6 4.911-3.881 5.897zm-26.075-13.392v5.354l-4.794 5.357-9e-3 -5.805c-1.893-0.825-3.22-2.709-3.22-4.906v-5.349c0-2.958 2.396-5.354 5.355-5.354h12.719c1.743 0 3.277 0.846 4.254 2.135h-5.738c-4.732 0-8.567 3.835-8.567 8.568z" clip-rule="evenodd" fill-rule="evenodd"/>
</svg>