<?xml version='1.0' encoding='utf-8'?>
<svg xmlns="http://www.w3.org/2000/svg" width="91.44mm" height="91.44mm" version="1.1" style="shape-rendering:geometricPrecision; text-rendering:geometricPrecision; image-rendering:optimizeQuality; fill-rule:evenodd; clip-rule:evenodd" viewBox="0 0 9144 9144"> <defs> <style type="text/css">  .fil0 {fill:#F0F0F0} .fil1 {fill:#011627;fill-rule:nonzero}  </style> </defs> <g id="Layer_x0020_1"> <metadata id="CorelCorpID_0Corel-Layer"/> <g id="_2744590904720"> <polygon class="fil0" points="0,0 9144,0 9144,9144 0,9144 "/> <path class="fil1" d="M2712 2623l3720 0c49,0 89,40 89,89l0 3720c0,49 -40,89 -89,89l-3720 0c-49,0 -89,-40 -89,-89l0 -3720c0,-49 40,-89 89,-89zm635 2033l-2 -2 -1 -1 -1 -2 -1 0c-1,-1 -2,-2 -2,-4l-1 0c-1,-1 -1,-2 -2,-3l-1 -1 0 -1 -1 -1 -1 -1 0 -1 -1 -1 0 -1 -1 -1 -1 -2c-6,-12 -10,-26 -10,-41l0 -507c0,-49 40,-89 88,-89 25,0 47,10 63,27l867 867 1333 -1333c35,-34 91,-34 125,0 17,17 26,40 26,62l0 508c0,15 -4,29 -10,41l-1 1 0 1 -1 1 0 1 -1 1 -1 2 -1 1 0 1 -1 1c-1,1 -1,2 -2,3l-1 0c0,1 -1,2 -2,4l-1 0 -1 1 0 1 -1 1 -2 2 -1 0 -1394 1395c-35,34 -91,34 -125,0l-929 -930 -1 0zm150 -99l842 842 1308 -1307 0 -259 -1245 1245c-35,34 -91,34 -125,0l-780 -780 0 259zm2847 -1757l-3544 0 0 3544 3544 0 0 -3544z"/> </g> </g> </svg>