<?xml version='1.0' encoding='utf-8'?>
<svg xmlns="http://www.w3.org/2000/svg" width="91.44mm" height="91.44mm" version="1.1" style="shape-rendering:geometricPrecision; text-rendering:geometricPrecision; image-rendering:optimizeQuality; fill-rule:evenodd; clip-rule:evenodd" viewBox="0 0 9144 9144"> <defs> <style type="text/css">  .fil0 {fill:#F0F0F0} .fil1 {fill:#011627;fill-rule:nonzero}  </style> </defs> <g id="Layer_x0020_1"> <metadata id="CorelCorpID_0Corel-Layer"/> <g id="_2744492896960"> <polygon class="fil0" points="0,0 9144,0 9144,9144 0,9144 "/> <path class="fil1" d="M4572 2367c609,0 1160,247 1559,646 399,399 646,950 646,1559 0,609 -247,1160 -646,1559 -399,399 -950,646 -1559,646 -609,0 -1160,-247 -1559,-646 -399,-399 -646,-950 -646,-1559 0,-609 247,-1160 646,-1559 399,-399 950,-646 1559,-646zm1434 771c-367,-367 -874,-594 -1434,-594 -560,0 -1067,227 -1434,594 -367,367 -594,874 -594,1434 0,560 227,1067 594,1434 367,367 874,594 1434,594 560,0 1067,-227 1434,-594 367,-367 594,-874 594,-1434 0,-560 -227,-1067 -594,-1434z"/> <path class="fil1" d="M4890 6036l-635 0c-49,0 -89,-39 -89,-88l0 -1799c0,-49 40,-89 89,-89l635 0c48,0 88,40 88,89l0 1799c0,49 -40,88 -88,88zm-547 -176l458 0 0 -1623 -458 0 0 1623z"/> <path class="fil1" d="M4978 3196l0 635c0,49 -40,88 -88,88l-635 0c-49,0 -89,-39 -89,-88l0 -635c0,-49 40,-88 89,-88l635 0c48,0 88,39 88,88zm-177 547l0 -459 -458 0 0 459 458 0z"/> </g> </g> </svg>