<?xml version='1.0' encoding='utf-8'?>
<svg xmlns="http://www.w3.org/2000/svg" width="91.44mm" height="91.44mm" version="1.1" style="shape-rendering:geometricPrecision; text-rendering:geometricPrecision; image-rendering:optimizeQuality; fill-rule:evenodd; clip-rule:evenodd" viewBox="0 0 164.36 164.36"> <defs> <style type="text/css">  .fil0 {fill:#F0F0F0} .fil1 {fill:#011627;fill-rule:nonzero}  </style> </defs> <g id="Camada_x0020_1"> <metadata id="CorelCorpID_0Corel-Layer"/> <polygon class="fil0" points="164.36,164.36 -0,164.36 -0,0 164.36,0 "/> <path class="fil1" d="M82.18 77.75c1.22,0 2.33,0.5 3.14,1.3 0.03,0.03 0.06,0.07 0.09,0.1 0.75,0.79 1.21,1.86 1.21,3.04 0,1.23 -0.5,2.33 -1.3,3.14 -0.8,0.8 -1.91,1.3 -3.14,1.3 -1.22,0 -2.33,-0.5 -3.14,-1.3 -0.8,-0.8 -1.3,-1.91 -1.3,-3.14 0,-1.22 0.5,-2.33 1.3,-3.13l0 -0 -0 -0c0.8,-0.8 1.91,-1.3 3.14,-1.3zm19.91 0c1.23,0 2.33,0.5 3.14,1.3 0.03,0.03 0.06,0.07 0.1,0.1 0.75,0.79 1.2,1.86 1.2,3.04 0,1.23 -0.49,2.33 -1.3,3.14 -0.81,0.8 -1.91,1.3 -3.14,1.3 -1.22,0 -2.33,-0.5 -3.14,-1.3 -0.8,-0.8 -1.3,-1.91 -1.3,-3.14 0,-1.22 0.5,-2.33 1.3,-3.13l0 -0 -0 -0c0.8,-0.8 1.91,-1.3 3.14,-1.3zm0.99 3.45c-0.25,-0.25 -0.6,-0.41 -0.99,-0.41 -0.38,0 -0.73,0.16 -0.98,0.41l-0.01 -0c-0.25,0.25 -0.4,0.6 -0.4,0.99 0,0.39 0.15,0.73 0.41,0.99 0.25,0.25 0.6,0.41 0.98,0.41 0.39,0 0.74,-0.16 0.99,-0.41 0.25,-0.25 0.41,-0.6 0.41,-0.99 0,-0.36 -0.13,-0.69 -0.36,-0.93l-0.05 -0.05zm-40.81 -3.45c1.23,0 2.33,0.5 3.14,1.3 0.03,0.03 0.06,0.07 0.09,0.1 0.75,0.79 1.21,1.86 1.21,3.04 0,1.23 -0.5,2.33 -1.3,3.14 -0.8,0.8 -1.91,1.3 -3.14,1.3 -1.23,0 -2.33,-0.5 -3.14,-1.3 -0.8,-0.8 -1.3,-1.91 -1.3,-3.14 0,-1.22 0.5,-2.33 1.3,-3.13l0 -0 -0 -0c0.8,-0.8 1.91,-1.3 3.14,-1.3zm0.99 3.45c-0.25,-0.25 -0.6,-0.41 -0.99,-0.41 -0.38,0 -0.73,0.16 -0.99,0.41l-0 -0c-0.25,0.25 -0.41,0.6 -0.41,0.99 0,0.38 0.16,0.73 0.41,0.99 0.25,0.25 0.6,0.41 0.99,0.41 0.39,0 0.73,-0.16 0.99,-0.41 0.25,-0.25 0.41,-0.6 0.41,-0.99 0,-0.36 -0.13,-0.69 -0.35,-0.93l-0.05 -0.05zm19.91 0c-0.25,-0.25 -0.6,-0.41 -0.99,-0.41 -0.38,0 -0.73,0.16 -0.99,0.41l-0 -0c-0.25,0.25 -0.4,0.6 -0.4,0.99 0,0.38 0.16,0.73 0.41,0.99 0.25,0.25 0.6,0.41 0.99,0.41 0.39,0 0.73,-0.16 0.99,-0.41 0.25,-0.25 0.41,-0.6 0.41,-0.99 0,-0.36 -0.13,-0.69 -0.35,-0.93l-0.05 -0.05z"/> </g> </svg>