<svg width="435" height="213" viewBox="0 0 435 213" fill="none" xmlns="http://www.w3.org/2000/svg">
<g filter="url(#filter0_d_500_9027)">
<path d="M164.212 85.9082C159.336 85.9082 155.369 89.8577 155.369 94.7007V128.867C160.038 130.999 162.862 135.315 162.862 140.011C162.862 143.135 161.616 146.113 159.336 148.414L141.214 168.3C140.376 169.345 139.254 170.968 138.691 172.778C138.381 173.747 138.289 174.783 138.261 176.081H132.522C132.548 174.265 132.697 172.674 133.227 171.052C134.2 167.917 136.156 165.358 137.31 164.002L155.157 144.877C156.24 143.602 156.83 141.978 156.83 140.309C156.83 136.441 153.681 133.298 149.814 133.298C147.981 133.298 146.249 133.991 144.934 135.264L107.926 172.435C101.527 179.137 101.947 185.967 101.947 191.079L101.982 204.5H133.723V198.859C133.723 195.202 134.437 192.786 137.327 190.063L166.494 159.083C170.669 154.2 173 147.953 173 141.484V94.7007C173.002 89.8577 169.066 85.9082 164.212 85.9082Z" fill="#39BDF7"/>
<path d="M32.0746 135.266C30.751 133.999 29.0216 133.304 27.1922 133.304C23.3234 133.304 20.1685 136.445 20.1685 140.311C20.1685 141.984 20.7599 143.608 21.8428 144.883L39.6938 164.008C40.8461 165.362 42.8039 167.917 43.7787 171.052C44.3029 172.678 44.4517 174.265 44.4844 176.083H38.7373C38.7149 174.783 38.619 173.745 38.3111 172.778C37.7502 170.968 36.6306 169.347 35.7863 168.308L17.6641 148.414C15.382 146.113 14.1379 143.135 14.1379 140.011C14.1379 135.315 16.9564 130.999 21.6307 128.867V94.7007C21.6307 89.8577 17.662 85.9082 12.7858 85.9082C7.93199 85.9082 4 89.8577 4 94.7007V141.484C4 147.953 6.32697 154.2 10.5016 159.083L39.6714 190.061C42.5653 192.788 43.273 195.204 43.273 198.859V204.5H75.0184L75.0552 191.079C75.0552 185.967 75.4732 179.137 69.0776 172.435L32.0746 135.266Z" fill="#39BDF7"/>
<path d="M49.0954 32.9028C53.8983 36.8645 61.3809 35.72 61.3809 35.72C61.3809 35.72 61.0729 28.1598 56.266 24.1981C51.4652 20.2384 43.9806 21.3747 43.9806 21.3747C43.9806 21.3747 44.2906 28.9431 49.0954 32.9028Z" fill="#39BDF7"/>
<path d="M144.881 49.2312H132.75V44.5514C132.75 41.0936 131.449 37.8663 129.909 34.8328C129.049 33.1355 128.094 31.4872 127.252 29.7777C126.654 28.5578 126.085 27.2542 125.849 25.8996C126.642 25.3917 126.932 24.3084 126.773 23.37C126.585 22.2909 125.561 21.7258 124.562 21.7258H117.141C116.141 21.7258 115.201 22.1562 114.893 23.2068C114.61 24.1738 114.924 25.359 115.77 25.8996C115.381 28.2681 114.022 30.4937 112.907 32.5643C111.442 35.2877 109.974 38.0622 109.268 41.0895C108.685 43.6008 108.869 46.2854 108.869 48.8477V49.2332H99.8076C97.3215 46.62 94.5479 44.2148 91.7661 42.6114C91.138 42.2462 90.9463 41.7158 91.0299 41.2058C91.2094 40.1674 92.5105 39.2168 93.7587 39.9308C97.0136 41.8117 100.152 43.9435 102.907 46.4262C102.907 46.4282 103.234 44.1108 102.808 41.8178C102.349 39.3739 101.256 37.5807 101.256 37.5807C97.9741 33.107 93.2712 28.111 88.552 25.4019C86.6778 24.3248 88.6764 21.6483 90.5486 22.7254C93.7974 24.594 96.9299 26.7279 99.6831 29.2024C95.6655 9.14303 87.9973 -0.581675 78.2958 0.595408C73.7153 1.14825 68.5148 4.45306 71.0906 18.2374L76.0423 44.786C72.714 40.3 67.3931 37.3828 61.3809 37.3828C53.5557 37.3828 46.897 42.3115 44.2968 49.2312H32.1235V119.726H144.881V49.2312ZM133.605 108.446H43.3994V60.5124H133.605V108.446Z" fill="#39BDF7"/>
</g>
<g filter="url(#filter1_d_500_9027)">
<path d="M393.625 167.375C391.958 167.375 389.833 166.833 387.25 165.75C384 164.5 379.292 161.667 373.125 157.25L370.875 159.75C366.375 164.75 361.958 167.25 357.625 167.25C354.292 167.25 351.083 165.458 348 161.875C344.583 156.875 342.875 152 342.875 147.25C342.875 136.917 349.583 128.292 363 121.375C369.833 117.375 376.542 113.083 383.125 108.5C381.875 106.083 380.375 96.375 378.625 79.375C377.208 64.625 375.958 56.25 374.875 54.25C371.375 48 367.375 44.4167 362.875 43.5C361.458 43.3333 360.75 42.7083 360.75 41.625C361.083 40.9583 361.917 40.375 363.25 39.875C366.25 38.375 369.75 37.625 373.75 37.625C379.25 37.625 383.958 38.875 387.875 41.375C390.792 43.375 392.792 45.5 393.875 47.75C394.708 50.0833 395.125 53.3333 395.125 57.5C394.958 66.3333 394.083 74.5833 392.5 82.25C391.167 88.6667 390.5 93.875 390.5 97.875L390.375 103.25C403.125 94.25 410.542 86.75 412.625 80.75C413.125 79.5833 414.042 79 415.375 79C418.458 79 421.917 81.2083 425.75 85.625C427.083 87.125 427.917 88.5417 428.25 89.875C428.25 93.5417 426.458 95.375 422.875 95.375C418.458 97.375 413.083 100.083 406.75 103.5C395.417 109.583 383.333 115.625 370.5 121.625C359.5 128.292 354 136.333 354 145.75C354 148.5 354.583 150.75 355.75 152.5C356.167 153 356.625 153.25 357.125 153.25C359.875 153.25 363.417 150 367.75 143.5C371.083 137.667 374.917 133.625 379.25 131.375C380.833 130.542 382.5 130.125 384.25 130.125C386.5 130.125 388.917 130.792 391.5 132.125C392.75 133.208 393.708 135.958 394.375 140.375C394.875 143.375 395.125 146.542 395.125 149.875L395 152.75C396.583 153.167 397.833 154.375 398.75 156.375C399.5 157.708 399.875 159.083 399.875 160.5C399.875 163.833 398.208 166.083 394.875 167.25L393.625 167.375ZM382.25 152.25C382.333 151.417 382.375 150.208 382.375 148.625C382.375 145.458 382.25 142.833 382 140.75H379.5L378.125 144.375C377.292 147.875 376.458 150.458 375.625 152.125L382.25 152.25ZM331 107.375C333.833 107.375 336.333 106.75 338.5 105.5C341.75 103.5 343.375 101.125 343.375 98.375C343.375 96.0417 341.75 93.875 338.5 91.875C336.333 93.2917 334.292 94.75 332.375 96.25C327.875 100.417 325.625 103.5 325.625 105.5C325.625 106.75 327.417 107.375 331 107.375ZM332.25 117.375C327.5 117.375 323.417 115.625 320 112.125C318.167 110.125 317.25 107.875 317.25 105.375C317.25 101.125 320 96.4167 325.5 91.25L338.375 78.5C335.625 78.5 333.333 78.5833 331.5 78.75C329.667 78.8333 327.958 78.875 326.375 78.875C324.208 78.875 322.167 78.7917 320.25 78.625C316.583 78.2917 314 76.875 312.5 74.375C312.083 73.5417 311.875 72.7083 311.875 71.875C311.875 69.625 312.708 68.3333 314.375 68C316.042 67.5833 317.667 67.375 319.25 67.375C321.417 67.375 323.458 67.5833 325.375 68C329.292 65.0833 331.667 62.4583 332.5 60.125C322.583 54.625 317.625 49.25 317.625 44C317.625 42.25 318.25 41.375 319.5 41.375C320.167 41.375 320.958 41.75 321.875 42.5C322.875 43.1667 325.958 44.2917 331.125 45.875C343.375 50.0417 349.5 54.8333 349.5 60.25C349.5 62.25 346.958 65 341.875 68.5L345.875 68.375C347.375 68.375 349.708 69.2917 352.875 71.125C354.625 72.4583 355.5 74.0833 355.5 76C355.5 77.0833 355.208 78.125 354.625 79.125C351.625 82.9583 348.583 85.7917 345.5 87.625C348.75 88.875 351.333 90.5833 353.25 92.75C355.25 94.8333 356.25 97.1667 356.25 99.75C356.25 100.833 356 101.917 355.5 103C353.333 107.333 350.083 110.833 345.75 113.5C341.5 116.083 337 117.375 332.25 117.375Z" fill="#39BDF7"/>
<path d="M211.562 177.75C209.396 177.75 208.229 176.646 208.062 174.438C207.896 168.938 207.812 163.438 207.812 157.938C207.812 154.729 207.917 148.438 208.125 139.062V136.062C207.125 136.854 206.542 137.25 206.375 137.25C205.875 137.25 205.625 136.896 205.625 136.188C207.125 134.271 207.917 133.125 208 132.75C208.625 131.25 210.083 130.5 212.375 130.5C212.875 130.5 213.292 130.583 213.625 130.75C214.375 131.333 214.792 134.667 214.875 140.75C214.875 142.583 214.833 146.208 214.75 151.625L214.812 159.438C217.479 156.188 221.667 153.083 227.375 150.125C229.5 149.083 231.5 147.875 233.375 146.5C234 146.125 234.583 145.938 235.125 145.938C235.625 145.938 236.083 146.104 236.5 146.438C237.458 147.104 237.938 148.062 237.938 149.312C237.938 151.062 234.875 153.438 228.75 156.438C227.083 157.312 225.583 158.146 224.25 158.938C224.667 159.604 226.104 161.375 228.562 164.25C230.854 167.042 232.188 168.625 232.562 169C233.896 170.833 235.542 172.146 237.5 172.938C237.75 173.021 238.021 173.062 238.312 173.062C238.896 173.062 239.604 172.917 240.438 172.625C241.021 172.375 241.604 172.188 242.188 172.062C242.771 172.062 243.062 172.438 243.062 173.188C241.854 176.062 239.854 177.5 237.062 177.5C234.062 177.5 231.5 176.562 229.375 174.688C225.75 171.188 222.333 167.167 219.125 162.625C217.125 164.417 215.667 166.354 214.75 168.438C214.75 170.396 214.792 172.375 214.875 174.375C214.833 176.625 213.729 177.75 211.562 177.75ZM257.338 177.562C252.129 177.562 248.067 175.292 245.15 170.75C243.983 168.208 243.4 165.646 243.4 163.062C243.4 160.354 244.046 157.625 245.338 154.875C247.879 148.917 252.088 145.771 257.963 145.438C260.921 145.438 263.463 146.062 265.588 147.312C268.004 148.729 269.692 150.729 270.65 153.312C271.025 154.479 271.213 155.562 271.213 156.562C271.213 157.688 270.963 158.75 270.463 159.75C269.629 161.708 267.921 162.896 265.338 163.312C262.379 163.688 259.379 163.875 256.338 163.875L249.338 163.812C249.338 165.271 249.838 166.729 250.838 168.188C252.754 170.562 255.025 171.75 257.65 171.75C258.275 171.75 258.921 171.667 259.588 171.5C263.254 170.792 266.421 169.417 269.088 167.375C269.338 167.25 269.567 167.188 269.775 167.188C270.608 167.188 271.025 167.708 271.025 168.75C268.65 174.625 264.088 177.562 257.338 177.562ZM249.588 159.5C260.129 158.708 265.4 158.062 265.4 157.562C265.4 157.229 265.296 156.833 265.088 156.375C264.588 154.833 263.692 153.583 262.4 152.625C261.483 151.917 260.442 151.562 259.275 151.562C256.983 151.562 254.879 152.583 252.963 154.625C251.463 156.208 250.338 157.833 249.588 159.5ZM291.8 177.562C286.592 177.562 282.529 175.292 279.613 170.75C278.446 168.208 277.863 165.646 277.863 163.062C277.863 160.354 278.508 157.625 279.8 154.875C282.342 148.917 286.55 145.771 292.425 145.438C295.383 145.438 297.925 146.062 300.05 147.312C302.467 148.729 304.154 150.729 305.113 153.312C305.488 154.479 305.675 155.562 305.675 156.562C305.675 157.688 305.425 158.75 304.925 159.75C304.092 161.708 302.383 162.896 299.8 163.312C296.842 163.688 293.842 163.875 290.8 163.875L283.8 163.812C283.8 165.271 284.3 166.729 285.3 168.188C287.217 170.562 289.488 171.75 292.113 171.75C292.738 171.75 293.383 171.667 294.05 171.5C297.717 170.792 300.883 169.417 303.55 167.375C303.8 167.25 304.029 167.188 304.238 167.188C305.071 167.188 305.488 167.708 305.488 168.75C303.113 174.625 298.55 177.562 291.8 177.562ZM284.05 159.5C294.592 158.708 299.863 158.062 299.863 157.562C299.863 157.229 299.758 156.833 299.55 156.375C299.05 154.833 298.154 153.583 296.863 152.625C295.946 151.917 294.904 151.562 293.738 151.562C291.446 151.562 289.342 152.583 287.425 154.625C285.925 156.208 284.8 157.833 284.05 159.5ZM317.637 182.625C315.471 182.625 314.304 181.521 314.137 179.312C313.971 173.104 313.887 169.292 313.887 167.875C313.887 165.958 313.992 160.312 314.2 150.938L314.262 147.938C314.054 148.062 313.554 148.458 312.762 149.125C312.096 149.125 311.762 148.771 311.762 148.062C313.096 146.271 314.012 144.896 314.512 143.938C315.054 143.104 316.137 142.604 317.762 142.438C318.679 142.438 319.325 142.521 319.7 142.688C320.2 143.062 320.492 143.771 320.575 144.812C322.283 143.312 324.908 142.562 328.45 142.562C331.825 142.562 334.804 143.771 337.387 146.188C340.429 149.562 341.95 153.542 341.95 158.125C341.95 161 341.137 163.708 339.512 166.25C336.096 170.75 331.762 173 326.512 173C324.096 173 322.2 172.604 320.825 171.812V174.438C320.825 175.688 320.867 177.292 320.95 179.25C320.908 180.708 320.325 181.708 319.2 182.25C318.7 182.5 318.179 182.625 317.637 182.625ZM326.575 166.438C329.408 166.438 331.804 165.312 333.762 163.062C335.137 161.271 335.825 159.188 335.825 156.812C335.825 154.479 335.2 152.396 333.95 150.562C332.075 148.146 329.679 146.938 326.762 146.938C324.596 146.938 322.617 147.458 320.825 148.5C320.908 150.583 320.95 152.729 320.95 154.938L320.825 163.688C322.408 165.521 324.325 166.438 326.575 166.438Z" fill="#39BDF7"/>
</g>
<defs>
<filter id="filter0_d_500_9027" x="0" y="0.5" width="177" height="212" filterUnits="userSpaceOnUse" color-interpolation-filters="sRGB">
<feFlood flood-opacity="0" result="BackgroundImageFix"/>
<feColorMatrix in="SourceAlpha" type="matrix" values="0 0 0 0 0 0 0 0 0 0 0 0 0 0 0 0 0 0 127 0" result="hardAlpha"/>
<feOffset dy="4"/>
<feGaussianBlur stdDeviation="2"/>
<feComposite in2="hardAlpha" operator="out"/>
<feColorMatrix type="matrix" values="0 0 0 0 0 0 0 0 0 0 0 0 0 0 0 0 0 0 0.25 0"/>
<feBlend mode="normal" in2="BackgroundImageFix" result="effect1_dropShadow_500_9027"/>
<feBlend mode="normal" in="SourceGraphic" in2="effect1_dropShadow_500_9027" result="shape"/>
</filter>
<filter id="filter1_d_500_9027" x="201.625" y="37.625" width="230.625" height="153" filterUnits="userSpaceOnUse" color-interpolation-filters="sRGB">
<feFlood flood-opacity="0" result="BackgroundImageFix"/>
<feColorMatrix in="SourceAlpha" type="matrix" values="0 0 0 0 0 0 0 0 0 0 0 0 0 0 0 0 0 0 127 0" result="hardAlpha"/>
<feOffset dy="4"/>
<feGaussianBlur stdDeviation="2"/>
<feComposite in2="hardAlpha" operator="out"/>
<feColorMatrix type="matrix" values="0 0 0 0 0 0 0 0 0 0 0 0 0 0 0 0 0 0 0.25 0"/>
<feBlend mode="normal" in2="BackgroundImageFix" result="effect1_dropShadow_500_9027"/>
<feBlend mode="normal" in="SourceGraphic" in2="effect1_dropShadow_500_9027" result="shape"/>
</filter>
</defs>
</svg>
