<svg width="177" height="212" viewBox="0 0 177 212" fill="none" xmlns="http://www.w3.org/2000/svg">
<g filter="url(#filter0_d_202_30714)">
<path d="M164.212 85.4082C159.336 85.4082 155.369 89.3576 155.369 94.2006V128.367C160.038 130.498 162.862 134.815 162.862 139.511C162.862 142.634 161.616 145.613 159.336 147.914L141.214 167.8C140.376 168.844 139.254 170.468 138.691 172.278C138.381 173.247 138.289 174.283 138.261 175.581H132.522C132.548 173.765 132.697 172.174 133.227 170.552C134.2 167.416 136.156 164.858 137.31 163.502L155.157 144.377C156.24 143.102 156.83 141.478 156.83 139.809C156.83 135.941 153.681 132.798 149.814 132.798C147.981 132.798 146.249 133.491 144.934 134.764L107.926 171.935C101.527 178.636 101.947 185.466 101.947 190.579L101.982 204H133.723V198.359C133.723 194.702 134.437 192.286 137.327 189.563L166.494 158.583C170.669 153.699 173 147.453 173 140.984V94.2006C173.002 89.3576 169.066 85.4082 164.212 85.4082Z" fill="#FED7AA"/>
<path d="M32.0746 134.766C30.751 133.499 29.0216 132.804 27.1922 132.804C23.3234 132.804 20.1685 135.945 20.1685 139.811C20.1685 141.484 20.7599 143.108 21.8428 144.383L39.6938 163.508C40.8461 164.862 42.8039 167.416 43.7787 170.552C44.3029 172.178 44.4517 173.765 44.4844 175.583H38.7373C38.7149 174.283 38.619 173.245 38.3111 172.278C37.7502 170.468 36.6306 168.846 35.7863 167.808L17.6641 147.914C15.382 145.613 14.1379 142.634 14.1379 139.511C14.1379 134.815 16.9564 130.498 21.6307 128.367V94.2006C21.6307 89.3576 17.662 85.4082 12.7858 85.4082C7.93199 85.4082 4 89.3576 4 94.2006V140.984C4 147.453 6.32697 153.699 10.5016 158.583L39.6714 189.561C42.5653 192.288 43.273 194.704 43.273 198.359V204H75.0184L75.0552 190.579C75.0552 185.466 75.4732 178.636 69.0776 171.935L32.0746 134.766Z" fill="#FED7AA"/>
<path d="M49.0954 32.4028C53.8983 36.3645 61.3809 35.22 61.3809 35.22C61.3809 35.22 61.0729 27.6598 56.266 23.6981C51.4652 19.7384 43.9806 20.8747 43.9806 20.8747C43.9806 20.8747 44.2906 28.4431 49.0954 32.4028Z" fill="#FB923C"/>
<path d="M144.881 48.7312H132.75V44.0514C132.75 40.5936 131.449 37.3663 129.909 34.3328C129.049 32.6355 128.094 30.9872 127.252 29.2777C126.654 28.0578 126.085 26.7542 125.849 25.3996C126.642 24.8917 126.932 23.8084 126.773 22.87C126.585 21.7909 125.561 21.2258 124.562 21.2258H117.141C116.141 21.2258 115.201 21.6562 114.893 22.7068C114.61 23.6738 114.924 24.859 115.77 25.3996C115.381 27.7681 114.022 29.9937 112.907 32.0643C111.442 34.7877 109.974 37.5622 109.268 40.5895C108.685 43.1008 108.869 45.7854 108.869 48.3477V48.7332H99.8076C97.3215 46.12 94.5479 43.7148 91.7661 42.1114C91.138 41.7462 90.9463 41.2158 91.0299 40.7058C91.2094 39.6674 92.5105 38.7168 93.7587 39.4308C97.0136 41.3117 100.152 43.4435 102.907 45.9262C102.907 45.9282 103.234 43.6108 102.808 41.3178C102.349 38.8739 101.256 37.0807 101.256 37.0807C97.9741 32.607 93.2712 27.611 88.552 24.9019C86.6778 23.8248 88.6764 21.1483 90.5486 22.2254C93.7974 24.094 96.9299 26.2279 99.6831 28.7024C95.6655 8.64303 87.9973 -1.08168 78.2958 0.0954081C73.7153 0.64825 68.5148 3.95306 71.0906 17.7374L76.0423 44.286C72.714 39.8 67.3931 36.8828 61.3809 36.8828C53.5557 36.8828 46.897 41.8115 44.2968 48.7312H32.1235V119.226H144.881V48.7312ZM133.605 107.946H43.3994V60.0124H133.605V107.946Z" fill="#F97417"/>
</g>
<defs>
<filter id="filter0_d_202_30714" x="0" y="0" width="177" height="212" filterUnits="userSpaceOnUse" color-interpolation-filters="sRGB">
<feFlood flood-opacity="0" result="BackgroundImageFix"/>
<feColorMatrix in="SourceAlpha" type="matrix" values="0 0 0 0 0 0 0 0 0 0 0 0 0 0 0 0 0 0 127 0" result="hardAlpha"/>
<feOffset dy="4"/>
<feGaussianBlur stdDeviation="2"/>
<feComposite in2="hardAlpha" operator="out"/>
<feColorMatrix type="matrix" values="0 0 0 0 0 0 0 0 0 0 0 0 0 0 0 0 0 0 0.25 0"/>
<feBlend mode="normal" in2="BackgroundImageFix" result="effect1_dropShadow_202_30714"/>
<feBlend mode="normal" in="SourceGraphic" in2="effect1_dropShadow_202_30714" result="shape"/>
</filter>
</defs>
</svg>
