<svg width="234" height="205" viewBox="0 0 234 205" fill="none" xmlns="http://www.w3.org/2000/svg">
<g filter="url(#filter0_d_202_30707)">
<path d="M192.625 167.375C190.958 167.375 188.833 166.833 186.25 165.75C183 164.5 178.292 161.667 172.125 157.25L169.875 159.75C165.375 164.75 160.958 167.25 156.625 167.25C153.292 167.25 150.083 165.458 147 161.875C143.583 156.875 141.875 152 141.875 147.25C141.875 136.917 148.583 128.292 162 121.375C168.833 117.375 175.542 113.083 182.125 108.5C180.875 106.083 179.375 96.375 177.625 79.375C176.208 64.625 174.958 56.25 173.875 54.25C170.375 48 166.375 44.4167 161.875 43.5C160.458 43.3333 159.75 42.7083 159.75 41.625C160.083 40.9583 160.917 40.375 162.25 39.875C165.25 38.375 168.75 37.625 172.75 37.625C178.25 37.625 182.958 38.875 186.875 41.375C189.792 43.375 191.792 45.5 192.875 47.75C193.708 50.0833 194.125 53.3333 194.125 57.5C193.958 66.3333 193.083 74.5833 191.5 82.25C190.167 88.6667 189.5 93.875 189.5 97.875L189.375 103.25C202.125 94.25 209.542 86.75 211.625 80.75C212.125 79.5833 213.042 79 214.375 79C217.458 79 220.917 81.2083 224.75 85.625C226.083 87.125 226.917 88.5417 227.25 89.875C227.25 93.5417 225.458 95.375 221.875 95.375C217.458 97.375 212.083 100.083 205.75 103.5C194.417 109.583 182.333 115.625 169.5 121.625C158.5 128.292 153 136.333 153 145.75C153 148.5 153.583 150.75 154.75 152.5C155.167 153 155.625 153.25 156.125 153.25C158.875 153.25 162.417 150 166.75 143.5C170.083 137.667 173.917 133.625 178.25 131.375C179.833 130.542 181.5 130.125 183.25 130.125C185.5 130.125 187.917 130.792 190.5 132.125C191.75 133.208 192.708 135.958 193.375 140.375C193.875 143.375 194.125 146.542 194.125 149.875L194 152.75C195.583 153.167 196.833 154.375 197.75 156.375C198.5 157.708 198.875 159.083 198.875 160.5C198.875 163.833 197.208 166.083 193.875 167.25L192.625 167.375ZM181.25 152.25C181.333 151.417 181.375 150.208 181.375 148.625C181.375 145.458 181.25 142.833 181 140.75H178.5L177.125 144.375C176.292 147.875 175.458 150.458 174.625 152.125L181.25 152.25ZM130 107.375C132.833 107.375 135.333 106.75 137.5 105.5C140.75 103.5 142.375 101.125 142.375 98.375C142.375 96.0417 140.75 93.875 137.5 91.875C135.333 93.2917 133.292 94.75 131.375 96.25C126.875 100.417 124.625 103.5 124.625 105.5C124.625 106.75 126.417 107.375 130 107.375ZM131.25 117.375C126.5 117.375 122.417 115.625 119 112.125C117.167 110.125 116.25 107.875 116.25 105.375C116.25 101.125 119 96.4167 124.5 91.25L137.375 78.5C134.625 78.5 132.333 78.5833 130.5 78.75C128.667 78.8333 126.958 78.875 125.375 78.875C123.208 78.875 121.167 78.7917 119.25 78.625C115.583 78.2917 113 76.875 111.5 74.375C111.083 73.5417 110.875 72.7083 110.875 71.875C110.875 69.625 111.708 68.3333 113.375 68C115.042 67.5833 116.667 67.375 118.25 67.375C120.417 67.375 122.458 67.5833 124.375 68C128.292 65.0833 130.667 62.4583 131.5 60.125C121.583 54.625 116.625 49.25 116.625 44C116.625 42.25 117.25 41.375 118.5 41.375C119.167 41.375 119.958 41.75 120.875 42.5C121.875 43.1667 124.958 44.2917 130.125 45.875C142.375 50.0417 148.5 54.8333 148.5 60.25C148.5 62.25 145.958 65 140.875 68.5L144.875 68.375C146.375 68.375 148.708 69.2917 151.875 71.125C153.625 72.4583 154.5 74.0833 154.5 76C154.5 77.0833 154.208 78.125 153.625 79.125C150.625 82.9583 147.583 85.7917 144.5 87.625C147.75 88.875 150.333 90.5833 152.25 92.75C154.25 94.8333 155.25 97.1667 155.25 99.75C155.25 100.833 155 101.917 154.5 103C152.333 107.333 149.083 110.833 144.75 113.5C140.5 116.083 136 117.375 131.25 117.375Z" fill="#7C2D12"/>
<path d="M10.5625 177.75C8.39583 177.75 7.22917 176.646 7.0625 174.438C6.89583 168.938 6.8125 163.438 6.8125 157.938C6.8125 154.729 6.91667 148.438 7.125 139.062V136.062C6.125 136.854 5.54167 137.25 5.375 137.25C4.875 137.25 4.625 136.896 4.625 136.188C6.125 134.271 6.91667 133.125 7 132.75C7.625 131.25 9.08333 130.5 11.375 130.5C11.875 130.5 12.2917 130.583 12.625 130.75C13.375 131.333 13.7917 134.667 13.875 140.75C13.875 142.583 13.8333 146.208 13.75 151.625L13.8125 159.438C16.4792 156.188 20.6667 153.083 26.375 150.125C28.5 149.083 30.5 147.875 32.375 146.5C33 146.125 33.5833 145.938 34.125 145.938C34.625 145.938 35.0833 146.104 35.5 146.438C36.4583 147.104 36.9375 148.062 36.9375 149.312C36.9375 151.062 33.875 153.438 27.75 156.438C26.0833 157.312 24.5833 158.146 23.25 158.938C23.6667 159.604 25.1042 161.375 27.5625 164.25C29.8542 167.042 31.1875 168.625 31.5625 169C32.8958 170.833 34.5417 172.146 36.5 172.938C36.75 173.021 37.0208 173.062 37.3125 173.062C37.8958 173.062 38.6042 172.917 39.4375 172.625C40.0208 172.375 40.6042 172.188 41.1875 172.062C41.7708 172.062 42.0625 172.438 42.0625 173.188C40.8542 176.062 38.8542 177.5 36.0625 177.5C33.0625 177.5 30.5 176.562 28.375 174.688C24.75 171.188 21.3333 167.167 18.125 162.625C16.125 164.417 14.6667 166.354 13.75 168.438C13.75 170.396 13.7917 172.375 13.875 174.375C13.8333 176.625 12.7292 177.75 10.5625 177.75ZM56.3375 177.562C51.1292 177.562 47.0667 175.292 44.15 170.75C42.9833 168.208 42.4 165.646 42.4 163.062C42.4 160.354 43.0458 157.625 44.3375 154.875C46.8792 148.917 51.0875 145.771 56.9625 145.438C59.9208 145.438 62.4625 146.062 64.5875 147.312C67.0042 148.729 68.6917 150.729 69.65 153.312C70.025 154.479 70.2125 155.562 70.2125 156.562C70.2125 157.688 69.9625 158.75 69.4625 159.75C68.6292 161.708 66.9208 162.896 64.3375 163.312C61.3792 163.688 58.3792 163.875 55.3375 163.875L48.3375 163.812C48.3375 165.271 48.8375 166.729 49.8375 168.188C51.7542 170.562 54.025 171.75 56.65 171.75C57.275 171.75 57.9208 171.667 58.5875 171.5C62.2542 170.792 65.4208 169.417 68.0875 167.375C68.3375 167.25 68.5667 167.188 68.775 167.188C69.6083 167.188 70.025 167.708 70.025 168.75C67.65 174.625 63.0875 177.562 56.3375 177.562ZM48.5875 159.5C59.1292 158.708 64.4 158.062 64.4 157.562C64.4 157.229 64.2958 156.833 64.0875 156.375C63.5875 154.833 62.6917 153.583 61.4 152.625C60.4833 151.917 59.4417 151.562 58.275 151.562C55.9833 151.562 53.8792 152.583 51.9625 154.625C50.4625 156.208 49.3375 157.833 48.5875 159.5ZM90.8 177.562C85.5917 177.562 81.5292 175.292 78.6125 170.75C77.4458 168.208 76.8625 165.646 76.8625 163.062C76.8625 160.354 77.5083 157.625 78.8 154.875C81.3417 148.917 85.55 145.771 91.425 145.438C94.3833 145.438 96.925 146.062 99.05 147.312C101.467 148.729 103.154 150.729 104.113 153.312C104.488 154.479 104.675 155.562 104.675 156.562C104.675 157.688 104.425 158.75 103.925 159.75C103.092 161.708 101.383 162.896 98.8 163.312C95.8417 163.688 92.8417 163.875 89.8 163.875L82.8 163.812C82.8 165.271 83.3 166.729 84.3 168.188C86.2167 170.562 88.4875 171.75 91.1125 171.75C91.7375 171.75 92.3833 171.667 93.05 171.5C96.7167 170.792 99.8833 169.417 102.55 167.375C102.8 167.25 103.029 167.188 103.238 167.188C104.071 167.188 104.488 167.708 104.488 168.75C102.113 174.625 97.55 177.562 90.8 177.562ZM83.05 159.5C93.5917 158.708 98.8625 158.062 98.8625 157.562C98.8625 157.229 98.7583 156.833 98.55 156.375C98.05 154.833 97.1542 153.583 95.8625 152.625C94.9458 151.917 93.9042 151.562 92.7375 151.562C90.4458 151.562 88.3417 152.583 86.425 154.625C84.925 156.208 83.8 157.833 83.05 159.5ZM116.637 182.625C114.471 182.625 113.304 181.521 113.137 179.312C112.971 173.104 112.887 169.292 112.887 167.875C112.887 165.958 112.992 160.312 113.2 150.938L113.262 147.938C113.054 148.062 112.554 148.458 111.762 149.125C111.096 149.125 110.762 148.771 110.762 148.062C112.096 146.271 113.012 144.896 113.512 143.938C114.054 143.104 115.137 142.604 116.762 142.438C117.679 142.438 118.325 142.521 118.7 142.688C119.2 143.062 119.492 143.771 119.575 144.812C121.283 143.312 123.908 142.562 127.45 142.562C130.825 142.562 133.804 143.771 136.387 146.188C139.429 149.562 140.95 153.542 140.95 158.125C140.95 161 140.137 163.708 138.512 166.25C135.096 170.75 130.762 173 125.512 173C123.096 173 121.2 172.604 119.825 171.812V174.438C119.825 175.688 119.867 177.292 119.95 179.25C119.908 180.708 119.325 181.708 118.2 182.25C117.7 182.5 117.179 182.625 116.637 182.625ZM125.575 166.438C128.408 166.438 130.804 165.312 132.762 163.062C134.137 161.271 134.825 159.188 134.825 156.812C134.825 154.479 134.2 152.396 132.95 150.562C131.075 148.146 128.679 146.938 125.762 146.938C123.596 146.938 121.617 147.458 119.825 148.5C119.908 150.583 119.95 152.729 119.95 154.938L119.825 163.688C121.408 165.521 123.325 166.438 125.575 166.438Z" fill="#4B1D95"/>
</g>
<defs>
<filter id="filter0_d_202_30707" x="0.625" y="37.625" width="230.625" height="153" filterUnits="userSpaceOnUse" color-interpolation-filters="sRGB">
<feFlood flood-opacity="0" result="BackgroundImageFix"/>
<feColorMatrix in="SourceAlpha" type="matrix" values="0 0 0 0 0 0 0 0 0 0 0 0 0 0 0 0 0 0 127 0" result="hardAlpha"/>
<feOffset dy="4"/>
<feGaussianBlur stdDeviation="2"/>
<feComposite in2="hardAlpha" operator="out"/>
<feColorMatrix type="matrix" values="0 0 0 0 0 0 0 0 0 0 0 0 0 0 0 0 0 0 0.25 0"/>
<feBlend mode="normal" in2="BackgroundImageFix" result="effect1_dropShadow_202_30707"/>
<feBlend mode="normal" in="SourceGraphic" in2="effect1_dropShadow_202_30707" result="shape"/>
</filter>
</defs>
</svg>
